<svg xmlns="http://www.w3.org/2000/svg" width="605.7" height="642.122" viewBox="0 0 605.7 642.122">
  <g id="Group_11948" data-name="Group 11948" transform="translate(-13785.058 656.092)">
    <g id="Group_11947" data-name="Group 11947" transform="translate(13780 -739)">
      <path id="Path_50602" data-name="Path 50602" d="M307.86,628.9q-108.48,0-216.961-.017c-21.56-.013-38.439-12.089-45.133-32.031-6.314-18.81-.1-38.417,16.226-51.139,13.125-10.229,26.163-20.572,39.422-30.624,9.2-6.974,13.55-16.015,13.537-27.48q-.084-73.736,0-147.473c.176-80.745,48.257-150.909,123.5-180.352a107.976,107.976,0,0,1,15.1-5.067c4.338-.992,5.26-3.118,5.252-7.242-.018-8.628-.75-17.271,1.033-25.895,4.407-21.311,24.1-37.912,46.3-38.649,22.719-.753,43.454,14.632,49.231,36.205,2.558,9.553,1.456,19.215,1.553,28.835.038,3.713.918,5.4,4.734,6.611,70.134,22.224,114.669,69.147,133.916,140,4.249,15.641,5.363,31.8,5.341,48.026-.063,47.992.082,95.984-.092,143.974-.045,12.258,4.309,21.771,14.2,29.166,13.589,10.165,27.038,20.539,40.2,31.254a45.951,45.951,0,0,1-8.223,76.831c-7.269,3.716-15.056,5.082-23.165,5.08Q415.841,628.887,307.86,628.9Zm.154-34.847q107.725,0,215.453-.022c2.624,0,5.27.323,7.815-1.01,7.843-4.107,8.651-14.007,1.322-19.809-12.656-10.019-25.313-20.045-38.226-29.724-19.286-14.457-28.279-33.5-28.1-57.614.348-47.82.133-95.645.091-143.468-.035-41.106-13.158-77.381-40.619-108.144-49.915-55.916-132.023-69.57-196.508-31.591-52.766,31.077-79.119,78.38-79.811,139.485-.551,48.65-.19,97.312-.083,145.968.049,22.775-9.066,40.806-27.048,54.595-12.941,9.923-25.753,20.014-38.654,29.989-2.871,2.22-5.009,4.769-5.472,8.55-.767,6.268,4.092,12.957,12.889,12.928C163.377,593.95,235.7,594.054,308.014,594.056Zm-.5-449.252q5.727,0,11.453,0c1.934,0,3.789-.13,3.668-2.81-.2-4.459.511-8.954-.675-13.377-1.544-5.755-6.229-10.115-11.7-10.756-6.68-.782-12.171,1.714-15.1,7.248a23.537,23.537,0,0,0-1.149,18.374c1.124,3.332,7.532.735,11.516,1.311A13.759,13.759,0,0,0,307.517,144.8Z" fill="#4690e7"/>
      <path id="Path_50603" data-name="Path 50603" d="M488.826,130.963c4.693-.358,8.628,2.009,12.305,5.048a304.383,304.383,0,0,1,90.042,123.072,293.277,293.277,0,0,1,19.45,77.618c1.122,10.228-4.846,18.929-14.12,20.169-10.574,1.414-18.749-5.027-20.109-15.949Q563.416,236.715,484.568,167.37c-2.751-2.414-5.721-4.6-8.306-7.176a16.675,16.675,0,0,1-3.525-18.911A17.246,17.246,0,0,1,488.826,130.963Z" fill="#4690e7"/>
      <path id="Path_50604" data-name="Path 50604" d="M5.11,335.73a292.915,292.915,0,0,1,22.3-83.719c19.762-45.671,48.747-84.494,87.33-116.038,8.8-7.2,19.262-6.638,25.687,1.24,6.48,7.948,5.178,18.155-3.686,25.465a269.941,269.941,0,0,0-70.624,88.114,263.566,263.566,0,0,0-25.963,84.365,56.676,56.676,0,0,1-1.832,10.285c-2.794,8.527-11.451,13.166-20.287,11.262C9.614,354.889,4.479,347.317,5.11,335.73Z" fill="#4690e7"/>
      <path id="Path_50605" data-name="Path 50605" d="M242.464,658.385H373.1c-.33,23.157-9.355,41.645-28.18,54.448-22.526,15.322-46.521,16.231-70.068,2.594C253.48,703.051,243.344,683.519,242.464,658.385Z" fill="#4690e7"/>
    </g>
  </g>
</svg>
