<svg xmlns="http://www.w3.org/2000/svg" width="80.323" height="85.6" viewBox="0 0 80.323 85.6">
  <g id="Group_11932" data-name="Group 11932" transform="translate(-13083.604 2285)">
    <path id="notification_1_" data-name="notification (1)" d="M21.2,69.2l.5-.5V44A26.26,26.26,0,0,1,40.483,18.79l1.217-.361V16a6.3,6.3,0,1,1,12.6,0v2.429l1.217.361A26.26,26.26,0,0,1,74.3,44V68.7l.5.5,7.5,7.5v1.6H13.7V76.7ZM54.067,85.7a6.3,6.3,0,0,1-12.133,0Zm31.6-43.4A37.624,37.624,0,0,0,75.7,18.46v-.031c6.9,7.378,9.555,13.775,9.958,23.871Zm-75.323,0h0c.4-10.1,3.056-16.492,9.958-23.871v.031A37.624,37.624,0,0,0,10.339,42.3Z" transform="translate(13075.766 -2292.2)" fill="none" stroke="#4690e7" stroke-linecap="round" stroke-linejoin="round" stroke-width="5"/>
    <path id="notification_1_2" data-name="notification (1)" d="M21.2,69.2l.5-.5V44A26.26,26.26,0,0,1,40.483,18.79c7.957-2.1,10.905-.921,15.034,0A26.26,26.26,0,0,1,74.3,44V68.7l.5.5,7.5,7.5v1.6H13.7V76.7Z" transform="translate(13075.766 -2292.2)" fill="none" stroke="#4690e7" stroke-linecap="round" stroke-linejoin="round" stroke-width="5"/>
  </g>
</svg>
