<svg xmlns="http://www.w3.org/2000/svg" width="492" height="492" viewBox="0 0 492 492">
  <g id="Group_12576" data-name="Group 12576" transform="translate(-10802 9941)">
    <g id="Group_12574" data-name="Group 12574">
      <g id="Group_12573" data-name="Group 12573">
        <rect id="Rectangle_1695" data-name="Rectangle 1695" width="492" height="492" rx="246" transform="translate(10802 -9941)" fill="#fff" opacity="0"/>
        <g id="Group_12572" data-name="Group 12572" transform="translate(-80.5 522.686)">
          <g id="Group_12572-2" data-name="Group 12572">
            <g id="Group_462612" data-name="Group 462612" transform="translate(11848.652 -10327.826)">
              <path id="Path_1910" data-name="Path 1910" d="M-747.592,113.84h-29.7V50.017h28.835c1.191-3.093.626-5.942.772-8.7.693-13.05,3.038-25.747,8.141-37.826,9.032-21.374,24.871-35.352,46.716-42.786,16.995-5.783,34.5-6.634,52.577-5.708V18.7c-3.752,0-7.374-.009-11,0a37.456,37.456,0,0,0-13.176,2.4c-9.077,3.417-14.225,10.2-16,19.494-.54,2.816-1.445,5.785-.709,9.152h40.875v64.079H-681.4v157.67h-66.188Z" fill="#4690e5"/>
              <path id="Path_1911" data-name="Path 1911" d="M-789.041,271.674h-66.111V-51.859h66.111Z" fill="#4590e4"/>
              <path id="Path_1912" data-name="Path 1912" d="M-626.811,277.94c-23.075.429-42.423-19.863-42.04-42.384a42.324,42.324,0,0,1,42.7-41.763c22.811.073,41.626,19.294,41.529,42.428a42.125,42.125,0,0,1-42.189,41.719Z" transform="translate(0 -6.272)" fill="#6df752"/>
            </g>
          </g>
        </g>
      </g>
    </g>
  </g>
</svg>
