<svg xmlns="http://www.w3.org/2000/svg" width="46.568" height="19.014" viewBox="0 0 46.568 19.014">
  <g id="Group_4524" data-name="Group 4524" transform="translate(0)">
    <g id="Group_190" data-name="Group 190">
      <path id="Path_28" data-name="Path 28" d="M6355.041,2990.156c.2-.393.56-.477.822-.658a9.946,9.946,0,0,0,1.991-2,8.563,8.563,0,0,0,1.181-1.912.639.639,0,0,1,.7-.412c1.848.018,3.693.013,5.54.009a4,4,0,0,0,2.916-1.142,4.272,4.272,0,0,0,1.269-2.162,6.375,6.375,0,0,0,.212-.967,4.383,4.383,0,0,0-1.311-3.366,3.537,3.537,0,0,0-2.1-1.146,9.24,9.24,0,0,0-1.046-.092c-1.133-.007-7.209-.238-9.358-.106a4.806,4.806,0,0,0-3.154,1.152,3.764,3.764,0,0,0-1.117,1.636,6.175,6.175,0,0,0-.365,2.007,2.376,2.376,0,0,1-1.045,1.879,2.974,2.974,0,0,1-1.779.6c-.79,0-1.578,0-2.319,0a.986.986,0,0,1-.283-.61,9.453,9.453,0,0,1,1.888-8.212,8.965,8.965,0,0,1,3.483-2.685c.328-.143.715-.163,1.011-.308a4.77,4.77,0,0,1,1.1-.325,6.32,6.32,0,0,1,1.393-.167c3.734,0,7.465,0,11.194.01a7.108,7.108,0,0,1,2.336.313c.336.119.69.152,1.018.288.346.145.685.308,1.021.475a5.2,5.2,0,0,1,.972.522,9.527,9.527,0,0,1,2.668,2.861,16.081,16.081,0,0,1,.732,1.44,9.627,9.627,0,0,1-2.565,10.809,8.994,8.994,0,0,1-4.579,2.167,8.8,8.8,0,0,1-1.517.11q-5.282-.005-10.569-.006Z" transform="translate(-6328.735 -2971.148)" fill="#fff" opacity="0.41"/>
      <path id="Path_29" data-name="Path 29" d="M6056.813,2970.8c.017.087-.158.21-.262.276-.474.306-.866.715-1.307,1.055a5.383,5.383,0,0,0-.953,1.017,10.158,10.158,0,0,0-1.378,2.161.649.649,0,0,1-.706.415c-1.865-.011-3.731,0-5.6-.006a4.412,4.412,0,0,0-4.263,3.443c-.062.284-.1.576-.19.862a1.918,1.918,0,0,0,.146,1.2,5.85,5.85,0,0,0,.619,1.425,4.961,4.961,0,0,0,.955,1.044,5.857,5.857,0,0,0,2.21,1.017,1.891,1.891,0,0,0,.5.041c3.2.005,6.405,0,9.611.013a4.445,4.445,0,0,0,2.723-.862,4.066,4.066,0,0,0,1.861-3.352,4.1,4.1,0,0,1,.133-1.049,2.9,2.9,0,0,1,2.566-2.079c.722-.033.143.012,2.146,0,.252-.051.384.068.454.388a10.3,10.3,0,0,1,.256,1.486,13.637,13.637,0,0,1,0,1.863,8.881,8.881,0,0,1-.57,2.493,9.737,9.737,0,0,1-2.976,4.021,6.273,6.273,0,0,1-1.957,1.168c-.379.132-.731.33-1.109.46a9.973,9.973,0,0,1-1.9.378c-.54.079-1.062-.061-1.6.039a5.228,5.228,0,0,1-.829-.068q-4.945,0-9.893,0a7.891,7.891,0,0,1-2.984-.652,9.031,9.031,0,0,1-3.3-2.276,9.549,9.549,0,0,1-2.293-4.189,9.446,9.446,0,0,1,1.6-8.031,9.633,9.633,0,0,1,2.84-2.516,11.554,11.554,0,0,1,2.856-1.1,4.36,4.36,0,0,1,1.221-.138c3.674-.012,7.349-.008,11.022-.008C6056.587,2970.728,6056.794,2970.711,6056.813,2970.8Z" transform="translate(-6036.644 -2970.727)" fill="#fff"/>
    </g>
  </g>
</svg>
